<svg xmlns="http://www.w3.org/2000/svg" xmlns:xlink="http://www.w3.org/1999/xlink" width="500" zoomAndPan="magnify" viewBox="0 0 375 374.999991" height="500" preserveAspectRatio="xMidYMid meet" version="1.0"><defs><g/><clipPath id="ca5be50ff5"><path d="M 31.261719 31.261719 L 344 31.261719 L 344 344 L 31.261719 344 Z M 31.261719 31.261719 " clip-rule="nonzero"/></clipPath><clipPath id="52e9c6f601"><path d="M 36.859375 36.859375 L 338.742188 36.859375 L 338.742188 338.140625 L 36.859375 338.140625 Z M 36.859375 36.859375 " clip-rule="nonzero"/></clipPath><clipPath id="4e0c86b030"><path d="M 338.140625 187.5 C 338.140625 270.695312 270.695312 338.140625 187.5 338.140625 C 104.304688 338.140625 36.859375 270.695312 36.859375 187.5 C 36.859375 104.304688 104.304688 36.859375 187.5 36.859375 C 270.695312 36.859375 338.140625 104.304688 338.140625 187.5 Z M 338.140625 187.5 " clip-rule="nonzero"/></clipPath><clipPath id="f6865062d3"><path d="M 345.53125 163.378906 L 369.535156 163.378906 L 369.535156 211.523438 L 345.53125 211.523438 Z M 345.53125 163.378906 " clip-rule="nonzero"/></clipPath><clipPath id="9bcf93e8eb"><path d="M 361.230469 163.472656 L 369.535156 163.472656 L 353.859375 187.496094 L 369.535156 211.523438 L 361.230469 211.523438 L 345.550781 187.496094 Z M 361.230469 163.472656 " clip-rule="nonzero"/></clipPath><clipPath id="dcb93c4f9c"><path d="M 291.488281 163.378906 L 361.304688 163.378906 L 361.304688 211.523438 L 291.488281 211.523438 Z M 291.488281 163.378906 " clip-rule="nonzero"/></clipPath><clipPath id="4f0ed0c848"><path d="M 291.488281 163.472656 L 361.230469 163.472656 L 345.550781 187.496094 L 361.230469 211.523438 L 291.488281 211.523438 Z M 291.488281 163.472656 " clip-rule="nonzero"/></clipPath><clipPath id="ec91a5e6c1"><path d="M 10.46875 163.476562 L 34.472656 163.476562 L 34.472656 211.621094 L 10.46875 211.621094 Z M 10.46875 163.476562 " clip-rule="nonzero"/></clipPath><clipPath id="e1739a894f"><path d="M 18.773438 211.527344 L 10.46875 211.527344 L 26.144531 187.5 L 10.46875 163.476562 L 18.773438 163.476562 L 34.453125 187.5 Z M 18.773438 211.527344 " clip-rule="nonzero"/></clipPath><clipPath id="29ae53038e"><path d="M 18.699219 163.476562 L 88.515625 163.476562 L 88.515625 211.621094 L 18.699219 211.621094 Z M 18.699219 163.476562 " clip-rule="nonzero"/></clipPath><clipPath id="e12513e3e7"><path d="M 88.515625 211.527344 L 18.773438 211.527344 L 34.453125 187.5 L 18.773438 163.476562 L 88.515625 163.476562 Z M 88.515625 211.527344 " clip-rule="nonzero"/></clipPath><clipPath id="4bb465fa06"><path d="M 53.730469 219.652344 L 71 219.652344 L 71 236 L 53.730469 236 Z M 53.730469 219.652344 " clip-rule="nonzero"/></clipPath><clipPath id="da8fe7a7fc"><path d="M 301 219.652344 L 318.425781 219.652344 L 318.425781 237 L 301 237 Z M 301 219.652344 " clip-rule="nonzero"/></clipPath><clipPath id="b4e1f4c359"><path d="M 79.367188 79.152344 L 296.117188 79.152344 L 296.117188 295.902344 L 79.367188 295.902344 Z M 79.367188 79.152344 " clip-rule="nonzero"/></clipPath><clipPath id="7d1854a591"><path d="M 80.960938 80.960938 L 293.960938 80.960938 L 293.960938 293.960938 L 80.960938 293.960938 Z M 80.960938 80.960938 " clip-rule="nonzero"/></clipPath></defs><rect x="-37.5" width="450" fill="#ffffff" y="-37.499999" height="449.999989" fill-opacity="1"/><rect x="-37.5" width="450" fill="#ffffff" y="-37.499999" height="449.999989" fill-opacity="1"/><g clip-path="url(#ca5be50ff5)"><path fill="#120199" d="M 187.496094 343.730469 C 101.347656 343.730469 31.261719 273.644531 31.261719 187.496094 C 31.261719 101.347656 101.347656 31.261719 187.496094 31.261719 C 273.644531 31.261719 343.730469 101.347656 343.730469 187.496094 C 343.730469 273.644531 273.644531 343.730469 187.496094 343.730469 Z M 187.496094 34.03125 C 102.875 34.03125 34.03125 102.875 34.03125 187.496094 C 34.03125 272.117188 102.875 340.960938 187.496094 340.960938 C 272.117188 340.960938 340.957031 272.117188 340.957031 187.496094 C 340.960938 102.875 272.117188 34.03125 187.496094 34.03125 Z M 187.496094 34.03125 " fill-opacity="1" fill-rule="nonzero"/></g><g clip-path="url(#52e9c6f601)"><g clip-path="url(#4e0c86b030)"><path fill="#ffffff" d="M 36.859375 36.859375 L 338.140625 36.859375 L 338.140625 338.140625 L 36.859375 338.140625 Z M 36.859375 36.859375 " fill-opacity="1" fill-rule="nonzero"/></g></g><g clip-path="url(#f6865062d3)"><g clip-path="url(#9bcf93e8eb)"><path fill="#e75d59" d="M 291.488281 211.523438 L 291.488281 163.515625 L 369.535156 163.515625 L 369.535156 211.523438 Z M 291.488281 211.523438 " fill-opacity="1" fill-rule="nonzero"/></g></g><g clip-path="url(#dcb93c4f9c)"><g clip-path="url(#4f0ed0c848)"><path fill="#120199" d="M 291.488281 211.523438 L 291.488281 163.515625 L 369.535156 163.515625 L 369.535156 211.523438 Z M 291.488281 211.523438 " fill-opacity="1" fill-rule="nonzero"/></g></g><path stroke-linecap="round" transform="matrix(0.75, 0, 0, 0.75, 302.450728, 169.031533)" fill="none" stroke-linejoin="miter" d="M 0.497988 0.499623 L 73.336534 0.499623 " stroke="#ffffff" stroke-width="1" stroke-opacity="1" stroke-miterlimit="4"/><path stroke-linecap="round" transform="matrix(0.75, 0, 0, 0.75, 303.200728, 205.218443)" fill="none" stroke-linejoin="miter" d="M 0.497988 0.50041 L 73.336534 0.50041 " stroke="#ffffff" stroke-width="1" stroke-opacity="1" stroke-miterlimit="4"/><g fill="#ffffff" fill-opacity="1"><g transform="translate(297.511479, 192.352927)"><g><path d="M 1.328125 -11.375 L 5.8125 -11.375 C 6.863281 -11.375 7.707031 -11.210938 8.34375 -10.890625 C 8.988281 -10.578125 9.453125 -10.140625 9.734375 -9.578125 C 10.023438 -9.023438 10.171875 -8.398438 10.171875 -7.703125 C 10.171875 -6.960938 10.019531 -6.304688 9.71875 -5.734375 C 9.425781 -5.171875 8.957031 -4.726562 8.3125 -4.40625 C 7.675781 -4.09375 6.84375 -3.9375 5.8125 -3.9375 L 3.125 -3.9375 L 3.125 0.640625 L 1.328125 0.640625 Z M 3.125 -9.78125 L 3.125 -5.53125 L 5.5625 -5.53125 C 7.445312 -5.53125 8.390625 -6.253906 8.390625 -7.703125 C 8.390625 -8.367188 8.148438 -8.878906 7.671875 -9.234375 C 7.203125 -9.597656 6.515625 -9.78125 5.609375 -9.78125 Z M 3.125 -9.78125 "/></g></g></g><g fill="#ffffff" fill-opacity="1"><g transform="translate(308.308887, 192.352927)"><g><path d="M 0.09375 -8.171875 L 1.96875 -8.171875 L 4.609375 -1.71875 L 7.125 -8.171875 L 8.984375 -8.171875 L 4.609375 2.734375 C 4.367188 3.285156 4.0625 3.640625 3.6875 3.796875 C 3.320312 3.960938 2.953125 4.046875 2.578125 4.046875 C 2.359375 4.046875 2.160156 4.039062 1.984375 4.03125 C 1.804688 4.019531 1.601562 3.988281 1.375 3.9375 L 1.375 2.4375 C 1.59375 2.5 1.835938 2.53125 2.109375 2.53125 C 2.347656 2.53125 2.570312 2.476562 2.78125 2.375 C 2.988281 2.28125 3.132812 2.113281 3.21875 1.875 L 3.765625 0.46875 Z M 0.09375 -8.171875 "/></g></g></g><g fill="#ffffff" fill-opacity="1"><g transform="translate(317.394706, 192.352927)"><g><path d="M 0.15625 -8.046875 L 1.6875 -8.046875 L 1.6875 -10.46875 L 3.421875 -10.46875 L 3.421875 -8.046875 L 5.4375 -8.046875 L 5.4375 -6.625 L 3.421875 -6.625 L 3.421875 -1.46875 C 3.421875 -1.125 3.523438 -0.894531 3.734375 -0.78125 C 3.941406 -0.675781 4.21875 -0.625 4.5625 -0.625 C 4.875 -0.625 5.15625 -0.679688 5.40625 -0.796875 L 5.40625 0.609375 C 5.15625 0.691406 4.890625 0.75 4.609375 0.78125 C 4.335938 0.8125 4.0625 0.828125 3.78125 0.828125 C 3.175781 0.828125 2.675781 0.695312 2.28125 0.4375 C 1.882812 0.1875 1.6875 -0.269531 1.6875 -0.9375 L 1.6875 -6.625 L 0.15625 -6.625 Z M 0.15625 -8.046875 "/></g></g></g><g fill="#ffffff" fill-opacity="1"><g transform="translate(323.153327, 192.352927)"><g><path d="M 1.046875 -11.375 L 2.796875 -11.375 L 2.796875 -7.03125 C 3.640625 -7.957031 4.585938 -8.421875 5.640625 -8.421875 C 6.671875 -8.421875 7.445312 -8.144531 7.96875 -7.59375 C 8.5 -7.050781 8.765625 -6.265625 8.765625 -5.234375 L 8.765625 0.640625 L 7.015625 0.640625 L 7.015625 -4.890625 C 7.015625 -5.554688 6.84375 -6.066406 6.5 -6.421875 C 6.164062 -6.785156 5.707031 -6.96875 5.125 -6.96875 C 4.28125 -6.96875 3.503906 -6.613281 2.796875 -5.90625 L 2.796875 0.640625 L 1.046875 0.640625 Z M 1.046875 -11.375 "/></g></g></g><g fill="#ffffff" fill-opacity="1"><g transform="translate(332.958967, 192.352927)"><g><path d="M 0.703125 -3.78125 C 0.703125 -4.582031 0.859375 -5.335938 1.171875 -6.046875 C 1.484375 -6.753906 1.957031 -7.328125 2.59375 -7.765625 C 3.238281 -8.203125 4.046875 -8.421875 5.015625 -8.421875 C 5.984375 -8.421875 6.78125 -8.207031 7.40625 -7.78125 C 8.039062 -7.351562 8.515625 -6.785156 8.828125 -6.078125 C 9.140625 -5.378906 9.296875 -4.613281 9.296875 -3.78125 C 9.296875 -2.9375 9.140625 -2.15625 8.828125 -1.4375 C 8.515625 -0.726562 8.039062 -0.160156 7.40625 0.265625 C 6.78125 0.691406 5.984375 0.90625 5.015625 0.90625 C 4.046875 0.90625 3.238281 0.6875 2.59375 0.25 C 1.957031 -0.175781 1.484375 -0.742188 1.171875 -1.453125 C 0.859375 -2.171875 0.703125 -2.945312 0.703125 -3.78125 Z M 2.46875 -3.78125 C 2.46875 -2.832031 2.679688 -2.0625 3.109375 -1.46875 C 3.546875 -0.882812 4.179688 -0.59375 5.015625 -0.59375 C 5.847656 -0.59375 6.472656 -0.878906 6.890625 -1.453125 C 7.316406 -2.023438 7.53125 -2.800781 7.53125 -3.78125 C 7.53125 -4.75 7.300781 -5.507812 6.84375 -6.0625 C 6.394531 -6.613281 5.785156 -6.890625 5.015625 -6.890625 C 4.242188 -6.890625 3.625 -6.601562 3.15625 -6.03125 C 2.695312 -5.46875 2.46875 -4.71875 2.46875 -3.78125 Z M 2.46875 -3.78125 "/></g></g></g><g fill="#ffffff" fill-opacity="1"><g transform="translate(342.956571, 192.352927)"><g><path d="M 1.046875 -8.171875 L 2.796875 -8.171875 L 2.796875 -7.03125 C 3.640625 -7.957031 4.585938 -8.421875 5.640625 -8.421875 C 6.691406 -8.421875 7.472656 -8.144531 7.984375 -7.59375 C 8.503906 -7.050781 8.765625 -6.265625 8.765625 -5.234375 L 8.765625 0.640625 L 7.015625 0.640625 L 7.015625 -4.890625 C 7.015625 -5.554688 6.84375 -6.066406 6.5 -6.421875 C 6.164062 -6.785156 5.703125 -6.96875 5.109375 -6.96875 C 4.273438 -6.96875 3.503906 -6.613281 2.796875 -5.90625 L 2.796875 0.640625 L 1.046875 0.640625 Z M 1.046875 -8.171875 "/></g></g></g><g clip-path="url(#ec91a5e6c1)"><g clip-path="url(#e1739a894f)"><path fill="#e75d59" d="M 88.515625 163.476562 L 88.515625 211.484375 L 10.46875 211.484375 L 10.46875 163.476562 Z M 88.515625 163.476562 " fill-opacity="1" fill-rule="nonzero"/></g></g><g clip-path="url(#29ae53038e)"><g clip-path="url(#e12513e3e7)"><path fill="#120199" d="M 88.515625 163.476562 L 88.515625 211.484375 L 10.46875 211.484375 L 10.46875 163.476562 Z M 88.515625 163.476562 " fill-opacity="1" fill-rule="nonzero"/></g></g><path stroke-linecap="round" transform="matrix(0.75, 0, 0, 0.75, 21.804854, 168.74936)" fill="none" stroke-linejoin="miter" d="M 0.499778 0.500853 L 73.338324 0.500853 " stroke="#ffffff" stroke-width="1" stroke-opacity="1" stroke-miterlimit="4"/><path stroke-linecap="round" transform="matrix(0.75, 0, 0, 0.75, 22.554854, 204.936255)" fill="none" stroke-linejoin="miter" d="M 0.499778 0.50166 L 73.338324 0.50166 " stroke="#ffffff" stroke-width="1" stroke-opacity="1" stroke-miterlimit="4"/><g fill="#ffffff" fill-opacity="1"><g transform="translate(32.829586, 192.350731)"><g><path d="M 1.328125 -11.375 L 3.125 -11.375 L 3.125 -0.9375 L 9.453125 -0.9375 L 9.453125 0.640625 L 1.328125 0.640625 Z M 1.328125 -11.375 "/></g></g></g><g fill="#ffffff" fill-opacity="1"><g transform="translate(42.587242, 192.350731)"><g><path d="M 1.046875 -8.171875 L 2.796875 -8.171875 L 2.796875 0.640625 L 1.046875 0.640625 Z M 1.046875 -11.375 L 2.796875 -11.375 L 2.796875 -9.484375 L 1.046875 -9.484375 Z M 1.046875 -11.375 "/></g></g></g><g fill="#ffffff" fill-opacity="1"><g transform="translate(46.426322, 192.350731)"><g><path d="M 1.046875 -8.171875 L 2.796875 -8.171875 L 2.796875 -7.03125 C 3.640625 -7.957031 4.585938 -8.421875 5.640625 -8.421875 C 6.691406 -8.421875 7.472656 -8.144531 7.984375 -7.59375 C 8.503906 -7.050781 8.765625 -6.265625 8.765625 -5.234375 L 8.765625 0.640625 L 7.015625 0.640625 L 7.015625 -4.890625 C 7.015625 -5.554688 6.84375 -6.066406 6.5 -6.421875 C 6.164062 -6.785156 5.703125 -6.96875 5.109375 -6.96875 C 4.273438 -6.96875 3.503906 -6.613281 2.796875 -5.90625 L 2.796875 0.640625 L 1.046875 0.640625 Z M 1.046875 -8.171875 "/></g></g></g><g fill="#ffffff" fill-opacity="1"><g transform="translate(56.231963, 192.350731)"><g><path d="M 1.046875 -8.171875 L 2.796875 -8.171875 L 2.796875 -2.59375 C 2.796875 -1.925781 2.976562 -1.410156 3.34375 -1.046875 C 3.707031 -0.691406 4.179688 -0.515625 4.765625 -0.515625 C 5.609375 -0.515625 6.359375 -0.867188 7.015625 -1.578125 L 7.015625 -8.171875 L 8.765625 -8.171875 L 8.765625 0.640625 L 7.015625 0.640625 L 7.015625 -0.4375 C 6.609375 -0.0195312 6.15625 0.304688 5.65625 0.546875 C 5.164062 0.785156 4.664062 0.90625 4.15625 0.90625 C 3.144531 0.90625 2.375 0.632812 1.84375 0.09375 C 1.3125 -0.4375 1.046875 -1.21875 1.046875 -2.25 Z M 1.046875 -8.171875 "/></g></g></g><g fill="#ffffff" fill-opacity="1"><g transform="translate(66.037603, 192.350731)"><g><path d="M 0.15625 -8.171875 L 2.109375 -8.171875 L 4.359375 -5.125 L 6.609375 -8.171875 L 8.5625 -8.171875 L 5.328125 -3.796875 L 8.625 0.640625 L 6.65625 0.640625 L 4.359375 -2.46875 L 2.0625 0.640625 L 0.09375 0.640625 L 3.375 -3.796875 Z M 0.15625 -8.171875 "/></g></g></g><g fill="#120199" fill-opacity="1"><g transform="translate(108.600081, 302.578076)"><g><path d="M 23.65625 9.046875 L 26.140625 11.84375 C 25.265625 12.789062 24.46875 13.570312 23.75 14.1875 C 23.039062 14.800781 22.3125 15.160156 21.5625 15.265625 C 20.820312 15.378906 19.945312 15.144531 18.9375 14.5625 L 12.71875 10.96875 C 11.738281 10.40625 11.039062 9.859375 10.625 9.328125 C 10.21875 8.796875 10.070312 8.179688 10.1875 7.484375 C 10.3125 6.796875 10.660156 5.953125 11.234375 4.953125 L 11.28125 4.875 C 11.101562 4.894531 10.785156 4.925781 10.328125 4.96875 C 9.878906 5.019531 9.367188 5.082031 8.796875 5.15625 C 8.234375 5.226562 7.671875 5.304688 7.109375 5.390625 C 6.546875 5.484375 6.070312 5.5625 5.6875 5.625 L 4.3125 5.921875 L 3.71875 2.515625 C 4.0625 2.460938 4.320312 2.34375 4.5 2.15625 C 4.675781 1.96875 4.878906 1.675781 5.109375 1.28125 L 10.0625 -7.296875 L 7.34375 -8.875 L 9.0625 -11.875 L 14.796875 -8.5625 L 8.78125 1.875 C 9.132812 1.820312 9.53125 1.753906 9.96875 1.671875 C 10.40625 1.597656 10.835938 1.519531 11.265625 1.4375 C 11.691406 1.363281 12.035156 1.304688 12.296875 1.265625 L 11.421875 4.625 L 17.1875 -5.375 L 26.515625 0.015625 L 29.40625 -4.984375 L 19.921875 -10.453125 L 21.734375 -13.609375 L 34.234375 -6.40625 L 27.796875 4.765625 L 18.40625 -0.65625 L 14.671875 5.828125 C 14.367188 6.347656 14.191406 6.765625 14.140625 7.078125 C 14.085938 7.390625 14.171875 7.664062 14.390625 7.90625 C 14.617188 8.15625 15 8.429688 15.53125 8.734375 L 19.421875 10.984375 C 19.984375 11.304688 20.507812 11.394531 21 11.25 C 21.5 11.113281 21.972656 10.835938 22.421875 10.421875 C 22.867188 10.015625 23.28125 9.554688 23.65625 9.046875 Z M 17.859375 -10.546875 L 14.25 -10.109375 C 14.226562 -10.722656 14.1875 -11.476562 14.125 -12.375 C 14.070312 -13.269531 14.007812 -14.160156 13.9375 -15.046875 C 13.875 -15.941406 13.820312 -16.671875 13.78125 -17.234375 L 17.296875 -17.5 C 17.335938 -16.925781 17.394531 -16.210938 17.46875 -15.359375 C 17.539062 -14.515625 17.613281 -13.660156 17.6875 -12.796875 C 17.769531 -11.941406 17.828125 -11.191406 17.859375 -10.546875 Z M 17.859375 -10.546875 "/></g></g></g><g fill="#120199" fill-opacity="1"><g transform="translate(150.108538, 323.201343)"><g><path d="M 2.84375 2.515625 L 1.703125 -0.703125 C 2.054688 -0.804688 2.625 -0.992188 3.40625 -1.265625 C 4.195312 -1.535156 5.085938 -1.84375 6.078125 -2.1875 C 7.066406 -2.53125 8.046875 -2.875 9.015625 -3.21875 C 8.753906 -3.632812 8.394531 -4.128906 7.9375 -4.703125 C 7.488281 -5.273438 7.03125 -5.851562 6.5625 -6.4375 C 6.09375 -7.019531 5.703125 -7.503906 5.390625 -7.890625 L 7.015625 -9.234375 L 4 -9.765625 L 4.53125 -12.75 L 23.1875 -9.46875 L 23.515625 -11.359375 L 7.875 -14.109375 L 8.390625 -17.03125 L 24.03125 -14.28125 L 24.359375 -16.140625 L 7.953125 -19.03125 L 8.484375 -22 L 28.234375 -18.515625 L 26.53125 -8.875 L 29.875 -8.28125 L 29.34375 -5.296875 L 26.0625 -5.875 L 27.34375 -3.84375 C 26.570312 -3.414062 25.6875 -2.914062 24.6875 -2.34375 C 23.695312 -1.769531 22.726562 -1.222656 21.78125 -0.703125 C 23.320312 0.960938 25.488281 2.601562 28.28125 4.21875 L 26.125 6.953125 C 23.882812 5.492188 22.046875 4.097656 20.609375 2.765625 C 19.179688 1.429688 18.03125 -0.0664062 17.15625 -1.734375 L 16.375 2.6875 C 16.132812 4.03125 15.664062 4.960938 14.96875 5.484375 C 14.28125 6.015625 13.179688 6.097656 11.671875 5.734375 L 9.796875 5.296875 L 9.6875 1.90625 L 11.015625 2.3125 C 11.859375 2.550781 12.425781 2.550781 12.71875 2.3125 C 13.019531 2.070312 13.234375 1.609375 13.359375 0.921875 L 13.796875 -1.578125 C 13.328125 -1.410156 12.695312 -1.171875 11.90625 -0.859375 C 11.125 -0.546875 10.269531 -0.21875 9.34375 0.125 C 8.414062 0.46875 7.507812 0.800781 6.625 1.125 C 5.75 1.457031 4.96875 1.742188 4.28125 1.984375 C 3.59375 2.234375 3.113281 2.410156 2.84375 2.515625 Z M 13.28125 -4.90625 L 13.96875 -3 L 14.015625 -2.828125 L 14.890625 -7.84375 L 8.578125 -8.953125 C 9.078125 -8.359375 9.613281 -7.695312 10.1875 -6.96875 C 10.769531 -6.238281 11.269531 -5.65625 11.6875 -5.21875 L 9.203125 -3.3125 C 10.117188 -3.664062 10.953125 -3.976562 11.703125 -4.25 C 12.453125 -4.519531 12.976562 -4.738281 13.28125 -4.90625 Z M 24.5625 -6.140625 L 18.15625 -7.265625 C 18.332031 -6.597656 18.554688 -5.9375 18.828125 -5.28125 C 19.097656 -4.625 19.421875 -3.984375 19.796875 -3.359375 C 20.578125 -3.804688 21.394531 -4.269531 22.25 -4.75 C 23.101562 -5.238281 23.875 -5.703125 24.5625 -6.140625 Z M 24.5625 -6.140625 "/></g></g></g><g fill="#120199" fill-opacity="1"><g transform="translate(196.165042, 328.404322)"><g><path d="M 7.75 -17.125 L 5.203125 -16.671875 L 5.765625 -13.5 L 7.6875 -14.765625 L 8.046875 -13.28125 L 8.375 -11.9375 L 25.390625 -14.9375 L 25.875 -12.109375 L 19.15625 -10.921875 L 19.546875 -8.765625 L 25.09375 -9.75 L 25.59375 -6.859375 L 20.046875 -5.875 L 20.46875 -3.53125 L 27.796875 -4.828125 L 27.6875 -1.671875 L 20.8125 -0.421875 C 19.101562 -0.140625 17.625 -0.160156 16.375 -0.484375 C 15.125 -0.816406 13.972656 -1.582031 12.921875 -2.78125 C 12.648438 -1.976562 12.3125 -1.171875 11.90625 -0.359375 C 11.5 0.453125 10.976562 1.3125 10.34375 2.21875 L 7.984375 0.875 C 7.859375 1.425781 7.5625 1.859375 7.09375 2.171875 C 6.625 2.484375 5.925781 2.6875 5 2.78125 L 3.859375 2.890625 L 2.625 -0.265625 L 3.4375 -0.234375 C 3.96875 -0.234375 4.289062 -0.351562 4.40625 -0.59375 C 4.53125 -0.84375 4.5625 -1.160156 4.5 -1.546875 L 3.328125 -8.140625 C 2.785156 -7.796875 2.273438 -7.476562 1.796875 -7.1875 C 1.328125 -6.894531 0.925781 -6.644531 0.59375 -6.4375 L -0.390625 -9.78125 C 0.0234375 -10.007812 0.5 -10.285156 1.03125 -10.609375 C 1.570312 -10.929688 2.132812 -11.269531 2.71875 -11.625 L 1.9375 -16.09375 L -0.921875 -15.59375 L -1.484375 -18.8125 L 1.375 -19.3125 L 0.53125 -24.09375 L 3.796875 -24.671875 L 4.640625 -19.890625 L 7.1875 -20.34375 Z M 7.484375 -24.65625 L 21.546875 -27.140625 L 23.484375 -16.09375 L 9.421875 -13.609375 Z M 10.359375 -8.828125 L 13.53125 -9.109375 C 13.550781 -8.578125 13.554688 -8.078125 13.546875 -7.609375 C 13.546875 -7.148438 13.539062 -6.695312 13.53125 -6.25 C 14.132812 -5.414062 14.71875 -4.769531 15.28125 -4.3125 C 15.851562 -3.851562 16.476562 -3.554688 17.15625 -3.421875 L 15.921875 -10.359375 L 8.484375 -9.046875 L 8.125 -11.125 L 6.359375 -10.046875 L 7.953125 -1.03125 C 7.972656 -0.90625 7.988281 -0.773438 8 -0.640625 C 8.019531 -0.515625 8.03125 -0.375 8.03125 -0.21875 C 8.726562 -1.195312 9.257812 -2.101562 9.625 -2.9375 C 9.988281 -3.78125 10.222656 -4.664062 10.328125 -5.59375 C 10.441406 -6.519531 10.453125 -7.597656 10.359375 -8.828125 Z M 12.203125 -16.859375 L 19.703125 -18.171875 L 19.4375 -19.703125 L 11.9375 -18.390625 Z M 11.203125 -22.59375 L 11.46875 -21.0625 L 18.96875 -22.375 L 18.703125 -23.90625 Z M 11.203125 -22.59375 "/></g></g></g><g fill="#120199" fill-opacity="1"><g transform="translate(241.228263, 317.560994)"><g><path d="M 4.640625 1.453125 L -2.078125 -10.203125 L 18.25 -21.9375 L 23.140625 -13.453125 C 23.804688 -12.285156 24.046875 -11.300781 23.859375 -10.5 C 23.671875 -9.707031 22.9375 -8.988281 21.65625 -8.34375 L 19.875 -7.5 L 17.921875 -9.703125 L 7.859375 -3.90625 L 4.5625 -9.625 L 15.359375 -15.859375 L 18.65625 -10.140625 L 19.09375 -10.28125 C 19.757812 -10.550781 20.109375 -10.84375 20.140625 -11.15625 C 20.179688 -11.476562 20.046875 -11.910156 19.734375 -12.453125 L 16.515625 -18.03125 L 2.140625 -9.75 L 7.609375 -0.265625 Z M -3.875 -18.203125 L 12.203125 -27.484375 L 15.4375 -21.859375 L -0.640625 -12.578125 Z M 14.671875 -30.375 L -7.640625 -17.515625 L -8.984375 -19.84375 L 0.765625 -25.46875 C 0.460938 -25.75 0.160156 -26.003906 -0.140625 -26.234375 C -0.453125 -26.472656 -0.765625 -26.726562 -1.078125 -27 L 1.765625 -29.359375 C 2.066406 -29.117188 2.4375 -28.8125 2.875 -28.4375 C 3.3125 -28.070312 3.71875 -27.71875 4.09375 -27.375 L 13.328125 -32.703125 Z M 0.296875 -17.765625 L 1.046875 -16.46875 L 11.21875 -22.328125 L 10.46875 -23.625 Z M 8.71875 -9.046875 L 9.5 -7.703125 L 14.609375 -10.640625 L 13.828125 -11.984375 Z M 8.71875 -9.046875 "/></g></g></g><g clip-path="url(#4bb465fa06)"><path fill="#e75d59" d="M 53.730469 226.300781 L 60.0625 223.890625 L 60.136719 217.332031 L 64.207031 222.835938 L 70.535156 220.800781 L 66.691406 226.300781 L 70.835938 231.875 L 64.355469 229.464844 L 60.363281 235.566406 L 60.136719 228.710938 Z M 53.730469 226.300781 " fill-opacity="1" fill-rule="nonzero"/></g><path fill="#e75d59" d="M 63.226562 261.183594 L 67.445312 255.910156 L 64.28125 250.183594 L 70.535156 252.972656 L 75.054688 248 L 74.453125 254.707031 L 80.78125 257.417969 L 74 258.625 L 73.546875 265.933594 L 69.933594 260.054688 Z M 63.226562 261.183594 " fill-opacity="1" fill-rule="nonzero"/><path fill="#e75d59" d="M 88.84375 286.652344 L 89.898438 279.945312 L 84.246094 276.632812 L 91.027344 275.878906 L 92.535156 269.324219 L 95.324219 275.425781 L 102.253906 274.597656 L 96.90625 279.042969 L 100.222656 285.597656 L 94.117188 282.28125 Z M 88.84375 286.652344 " fill-opacity="1" fill-rule="nonzero"/><path fill="#e75d59" d="M 284.039062 288.324219 L 278.761719 284.105469 L 273.035156 287.34375 L 275.824219 281.089844 L 270.851562 276.570312 L 277.558594 277.097656 L 280.269531 270.769531 L 281.476562 277.550781 L 288.785156 278.003906 L 282.90625 281.617188 Z M 284.039062 288.324219 " fill-opacity="1" fill-rule="nonzero"/><path fill="#e75d59" d="M 309.503906 262.707031 L 302.800781 261.652344 L 299.484375 267.304688 L 298.730469 260.523438 L 292.175781 259.089844 L 298.277344 256.226562 L 297.449219 249.371094 L 301.894531 254.644531 L 308.449219 251.328125 L 305.132812 257.433594 Z M 309.503906 262.707031 " fill-opacity="1" fill-rule="nonzero"/><g clip-path="url(#da8fe7a7fc)"><path fill="#e75d59" d="M 318.695312 227.746094 L 312.367188 230.234375 L 312.367188 236.710938 L 308.300781 231.289062 L 301.894531 233.246094 L 305.738281 227.746094 L 301.667969 222.171875 L 308.148438 224.582031 L 312.140625 218.480469 L 312.367188 225.335938 Z M 318.695312 227.746094 " fill-opacity="1" fill-rule="nonzero"/></g><g fill="#120199" fill-opacity="1"><g transform="translate(89.206679, 118.367227)"><g><path d="M -14.265625 -14.296875 L -12.21875 -16.796875 C -12.5 -17.210938 -12.78125 -17.609375 -13.0625 -17.984375 C -13.351562 -18.359375 -13.609375 -18.703125 -13.828125 -19.015625 L -11.359375 -21.125 C -11.160156 -20.832031 -10.957031 -20.535156 -10.75 -20.234375 C -10.539062 -19.929688 -10.335938 -19.625 -10.140625 -19.3125 L -6.921875 -23.21875 L -4.734375 -21.40625 C -4.253906 -20.644531 -3.835938 -19.914062 -3.484375 -19.21875 C -3.128906 -18.53125 -2.859375 -17.804688 -2.671875 -17.046875 L -0.15625 -18 C 0.238281 -19.238281 0.519531 -20.347656 0.6875 -21.328125 C -0.101562 -21.304688 -0.882812 -21.347656 -1.65625 -21.453125 C -2.4375 -21.566406 -3.242188 -21.734375 -4.078125 -21.953125 L -3.453125 -24.4375 L -5.046875 -22.484375 L -7.3125 -24.359375 L -0.375 -32.796875 L 1.96875 -30.84375 C 2.945312 -28.914062 3.535156 -26.925781 3.734375 -24.875 C 4.472656 -25.113281 5.253906 -25.457031 6.078125 -25.90625 C 6.910156 -26.351562 7.820312 -26.894531 8.8125 -27.53125 L 10.359375 -24.578125 C 9.117188 -23.859375 7.957031 -23.265625 6.875 -22.796875 C 5.800781 -22.335938 4.753906 -21.988281 3.734375 -21.75 C 3.671875 -21 3.5625 -20.222656 3.40625 -19.421875 C 3.257812 -18.617188 3.066406 -17.78125 2.828125 -16.90625 L 0.203125 -17.359375 L 0.9375 -14.953125 C 0.375 -14.773438 -0.175781 -14.597656 -0.71875 -14.421875 C -1.269531 -14.242188 -1.828125 -14.0625 -2.390625 -13.875 C -2.441406 -12.90625 -2.617188 -11.828125 -2.921875 -10.640625 C -3.222656 -9.453125 -3.671875 -8.082031 -4.265625 -6.53125 L -7.34375 -7.28125 C -6.863281 -8.4375 -6.472656 -9.457031 -6.171875 -10.34375 C -5.867188 -11.226562 -5.644531 -12.039062 -5.5 -12.78125 C -6.113281 -12.550781 -6.71875 -12.316406 -7.3125 -12.078125 C -7.914062 -11.835938 -8.515625 -11.597656 -9.109375 -11.359375 C -9.347656 -11.828125 -9.585938 -12.296875 -9.828125 -12.765625 C -10.066406 -13.242188 -10.328125 -13.722656 -10.609375 -14.203125 L -12.03125 -12.453125 Z M 9.890625 -12 L 11.359375 -13.46875 C 11.929688 -14.050781 12.203125 -14.546875 12.171875 -14.953125 C 12.148438 -15.367188 11.910156 -15.816406 11.453125 -16.296875 C 11.234375 -16.515625 10.96875 -16.773438 10.65625 -17.078125 C 10.34375 -17.390625 10.085938 -17.648438 9.890625 -17.859375 L 5.125 -12.0625 C 5.863281 -11.03125 6.335938 -9.941406 6.546875 -8.796875 C 6.753906 -7.648438 6.703125 -6.332031 6.390625 -4.84375 C 6.078125 -3.363281 5.507812 -1.609375 4.6875 0.421875 L 1.546875 -0.25 C 2.285156 -1.863281 2.804688 -3.238281 3.109375 -4.375 C 3.410156 -5.519531 3.539062 -6.492188 3.5 -7.296875 C 3.46875 -8.109375 3.289062 -8.828125 2.96875 -9.453125 L -0.875 -4.796875 L -3.203125 -6.734375 L 1.03125 -11.859375 C 0.757812 -12.085938 0.503906 -12.3125 0.265625 -12.53125 C 0.0351562 -12.757812 -0.132812 -12.921875 -0.25 -13.015625 L 1.828125 -15.546875 C 1.910156 -15.472656 2.0625 -15.328125 2.28125 -15.109375 C 2.5 -14.898438 2.765625 -14.644531 3.078125 -14.34375 L 9.875 -22.59375 L 14.421875 -18.046875 C 15.046875 -17.410156 15.460938 -16.800781 15.671875 -16.21875 C 15.890625 -15.644531 15.878906 -15.035156 15.640625 -14.390625 C 15.398438 -13.753906 14.898438 -13.003906 14.140625 -12.140625 L 12.640625 -10.546875 Z M -0.0625 -28.546875 L -3.21875 -24.71875 C -2.476562 -24.507812 -1.769531 -24.359375 -1.09375 -24.265625 C -0.425781 -24.179688 0.242188 -24.171875 0.921875 -24.234375 C 0.890625 -25.785156 0.5625 -27.222656 -0.0625 -28.546875 Z M -6.671875 -18.96875 L -8.53125 -16.71875 C -8.34375 -16.394531 -8.175781 -16.097656 -8.03125 -15.828125 C -7.882812 -15.554688 -7.769531 -15.289062 -7.6875 -15.03125 L -5.4375 -15.953125 C -5.539062 -16.492188 -5.703125 -17.003906 -5.921875 -17.484375 C -6.140625 -17.972656 -6.390625 -18.46875 -6.671875 -18.96875 Z M -6.671875 -18.96875 "/></g></g></g><g fill="#120199" fill-opacity="1"><g transform="translate(111.625254, 92.594975)"><g><path d="M -3.859375 -24.484375 L -1.125 -26.3125 C -1.019531 -26.15625 -0.8125 -25.835938 -0.5 -25.359375 C -0.1875 -24.890625 0.148438 -24.351562 0.515625 -23.75 C 0.890625 -23.15625 1.25 -22.578125 1.59375 -22.015625 L 10.90625 -28.21875 C 11.070312 -27.957031 11.351562 -27.484375 11.75 -26.796875 C 12.15625 -26.109375 12.632812 -25.304688 13.1875 -24.390625 C 13.75 -23.484375 14.332031 -22.523438 14.9375 -21.515625 C 15.550781 -20.515625 16.140625 -19.550781 16.703125 -18.625 C 17.273438 -17.695312 17.773438 -16.867188 18.203125 -16.140625 C 18.640625 -15.421875 18.960938 -14.894531 19.171875 -14.5625 C 19.992188 -13.175781 20.273438 -11.941406 20.015625 -10.859375 C 19.765625 -9.785156 18.84375 -8.785156 17.25 -7.859375 L 15.171875 -6.609375 L 12.71875 -9.03125 L 14.453125 -9.96875 C 15.210938 -10.382812 15.734375 -10.769531 16.015625 -11.125 C 16.296875 -11.488281 16.394531 -11.90625 16.3125 -12.375 C 16.226562 -12.84375 15.992188 -13.398438 15.609375 -14.046875 C 15.441406 -14.328125 15.171875 -14.78125 14.796875 -15.40625 C 14.421875 -16.039062 13.992188 -16.75 13.515625 -17.53125 C 13.035156 -18.320312 12.554688 -19.109375 12.078125 -19.890625 C 11.597656 -20.679688 11.160156 -21.382812 10.765625 -22 C 10.378906 -22.625 10.09375 -23.070312 9.90625 -23.34375 L 3.390625 -19 C 4.304688 -17.445312 5.0625 -16.015625 5.65625 -14.703125 C 6.257812 -13.390625 6.679688 -12.128906 6.921875 -10.921875 C 7.160156 -9.722656 7.238281 -8.503906 7.15625 -7.265625 C 7.082031 -6.035156 6.84375 -4.722656 6.4375 -3.328125 C 6.03125 -1.941406 5.460938 -0.394531 4.734375 1.3125 L 1.203125 0.34375 C 1.878906 -1.15625 2.421875 -2.507812 2.828125 -3.71875 C 3.242188 -4.925781 3.507812 -6.046875 3.625 -7.078125 C 3.738281 -8.117188 3.703125 -9.144531 3.515625 -10.15625 C 3.335938 -11.175781 3.007812 -12.25 2.53125 -13.375 C 2.050781 -14.5 1.410156 -15.757812 0.609375 -17.15625 L -5.53125 -13.0625 L -7.46875 -15.984375 L -1.21875 -20.140625 C -1.707031 -20.953125 -2.207031 -21.765625 -2.71875 -22.578125 C -3.226562 -23.390625 -3.609375 -24.023438 -3.859375 -24.484375 Z M -3.859375 -24.484375 "/></g></g></g><g fill="#120199" fill-opacity="1"><g transform="translate(140.547094, 74.419995)"><g><path d="M 22.6875 -15.828125 L -0.90625 -8.703125 L -1.96875 -12.1875 L 21.625 -19.3125 Z M 22.6875 -15.828125 "/></g></g></g><g fill="#120199" fill-opacity="1"><g transform="translate(173.493156, 65.400131)"><g><path d="M 17.578125 -0.609375 L 18.90625 -0.421875 C 19.90625 -0.285156 20.59375 -0.390625 20.96875 -0.734375 C 21.34375 -1.085938 21.550781 -1.75 21.59375 -2.71875 C 21.601562 -2.976562 21.625 -3.472656 21.65625 -4.203125 C 21.6875 -4.929688 21.71875 -5.789062 21.75 -6.78125 C 21.789062 -7.769531 21.828125 -8.804688 21.859375 -9.890625 C 21.898438 -10.972656 21.9375 -12.015625 21.96875 -13.015625 C 22 -14.023438 22.019531 -14.910156 22.03125 -15.671875 C 22.050781 -16.441406 22.0625 -16.984375 22.0625 -17.296875 L 17.8125 -17.296875 L 17.703125 -13.46875 C 17.640625 -11.675781 17.523438 -10.09375 17.359375 -8.71875 C 17.191406 -7.34375 16.941406 -6.097656 16.609375 -4.984375 C 16.285156 -3.878906 15.851562 -2.847656 15.3125 -1.890625 C 14.769531 -0.941406 14.097656 0 13.296875 0.9375 C 12.492188 1.882812 11.535156 2.878906 10.421875 3.921875 L 7.609375 1.546875 C 8.640625 0.679688 9.515625 -0.0976562 10.234375 -0.796875 C 10.953125 -1.492188 11.554688 -2.195312 12.046875 -2.90625 C 11.703125 -2.6875 11.234375 -2.375 10.640625 -1.96875 C 10.046875 -1.570312 9.4375 -1.171875 8.8125 -0.765625 C 8.195312 -0.367188 7.675781 -0.0546875 7.25 0.171875 C 6.988281 0.296875 6.738281 0.429688 6.5 0.578125 C 6.269531 0.734375 6.046875 0.882812 5.828125 1.03125 L 3.890625 -1.65625 C 4.316406 -1.988281 4.566406 -2.300781 4.640625 -2.59375 C 4.722656 -2.894531 4.765625 -3.234375 4.765625 -3.609375 L 4.765625 -11.453125 L 1.8125 -11.0625 L 1.515625 -14.453125 L 4.765625 -14.875 L 4.765625 -22.3125 L 7.953125 -22.3125 L 7.953125 -15.3125 L 12.1875 -15.875 L 12.296875 -12.484375 L 7.953125 -11.90625 L 7.953125 -4.140625 C 8.285156 -4.367188 8.671875 -4.628906 9.109375 -4.921875 C 9.546875 -5.222656 9.992188 -5.519531 10.453125 -5.8125 C 10.910156 -6.113281 11.304688 -6.378906 11.640625 -6.609375 L 12.40625 -3.46875 C 12.875 -4.269531 13.234375 -5.132812 13.484375 -6.0625 C 13.734375 -7 13.921875 -8.082031 14.046875 -9.3125 C 14.179688 -10.550781 14.285156 -12.007812 14.359375 -13.6875 C 14.359375 -14.175781 14.367188 -14.75 14.390625 -15.40625 C 14.410156 -16.070312 14.4375 -16.703125 14.46875 -17.296875 L 11.390625 -17.296875 L 11.390625 -20.671875 L 25.515625 -20.671875 C 25.515625 -20.535156 25.503906 -20.109375 25.484375 -19.390625 C 25.460938 -18.671875 25.4375 -17.757812 25.40625 -16.65625 C 25.382812 -15.5625 25.347656 -14.367188 25.296875 -13.078125 C 25.253906 -11.785156 25.210938 -10.488281 25.171875 -9.1875 C 25.128906 -7.894531 25.085938 -6.6875 25.046875 -5.5625 C 25.015625 -4.445312 24.976562 -3.519531 24.9375 -2.78125 C 24.90625 -2.050781 24.878906 -1.597656 24.859375 -1.421875 C 24.785156 0.0859375 24.394531 1.203125 23.6875 1.921875 C 22.976562 2.640625 21.765625 2.960938 20.046875 2.890625 L 18.25 2.765625 Z M 17.578125 -0.609375 "/></g></g></g><g fill="#120199" fill-opacity="1"><g transform="translate(207.639557, 66.308511)"><g><path d="M 3.140625 4.53125 L 6.75 -7.40625 L 12.171875 -5.765625 C 12.441406 -6.171875 12.695312 -6.578125 12.9375 -6.984375 C 13.175781 -7.390625 13.367188 -7.734375 13.515625 -8.015625 L 16.6875 -6.78125 C 16.519531 -6.5 16.328125 -6.175781 16.109375 -5.8125 C 15.890625 -5.457031 15.664062 -5.113281 15.4375 -4.78125 L 24.765625 -1.953125 L 21.15625 9.953125 L 18.09375 9.03125 L 18.390625 8.046875 L 6.46875 4.421875 L 6.171875 5.4375 Z M 26.875 -8.78125 L 29.359375 -7 C 28.628906 -5.757812 27.847656 -4.878906 27.015625 -4.359375 C 26.179688 -3.835938 25.125 -3.769531 23.84375 -4.15625 L 19.046875 -5.609375 C 18.066406 -5.910156 17.414062 -6.367188 17.09375 -6.984375 C 16.769531 -7.597656 16.789062 -8.492188 17.15625 -9.671875 L 19.5 -17.453125 L 22.5 -16.546875 L 21.46875 -13.125 C 22.257812 -13.125 23.101562 -13.160156 24 -13.234375 C 24.894531 -13.304688 25.75 -13.390625 26.5625 -13.484375 C 27.382812 -13.585938 28.078125 -13.691406 28.640625 -13.796875 L 28.90625 -10.9375 C 28.28125 -10.820312 27.484375 -10.71875 26.515625 -10.625 C 25.546875 -10.539062 24.539062 -10.46875 23.5 -10.40625 C 22.457031 -10.34375 21.492188 -10.304688 20.609375 -10.296875 L 20.40625 -9.609375 C 20.207031 -8.953125 20.179688 -8.523438 20.328125 -8.328125 C 20.484375 -8.128906 20.796875 -7.960938 21.265625 -7.828125 L 24.296875 -6.90625 C 24.898438 -6.71875 25.375 -6.785156 25.71875 -7.109375 C 26.0625 -7.441406 26.445312 -8 26.875 -8.78125 Z M 16.5 -11.1875 L 15.921875 -8.203125 C 15.773438 -8.203125 15.414062 -8.210938 14.84375 -8.234375 C 14.28125 -8.265625 13.613281 -8.300781 12.84375 -8.34375 C 12.082031 -8.382812 11.304688 -8.414062 10.515625 -8.4375 C 9.734375 -8.457031 9.050781 -8.46875 8.46875 -8.46875 C 8.082031 -8.46875 7.710938 -8.46875 7.359375 -8.46875 C 7.015625 -8.476562 6.644531 -8.476562 6.25 -8.46875 L 6.265625 -11.671875 C 6.648438 -11.710938 6.914062 -11.8125 7.0625 -11.96875 C 7.207031 -12.132812 7.335938 -12.414062 7.453125 -12.8125 L 9.71875 -20.265625 L 12.6875 -19.359375 L 11.859375 -16.65625 L 17.796875 -14.859375 L 17 -12.203125 L 11.0625 -14 L 10.28125 -11.4375 C 10.84375 -11.394531 11.507812 -11.359375 12.28125 -11.328125 C 13.050781 -11.304688 13.820312 -11.285156 14.59375 -11.265625 C 15.363281 -11.242188 16 -11.21875 16.5 -11.1875 Z M 7.71875 0.296875 L 7.203125 1.984375 L 19.125 5.609375 L 19.640625 3.921875 Z M 9 -3.9375 L 8.5 -2.265625 L 20.421875 1.359375 L 20.921875 -0.3125 Z M 9 -3.9375 "/></g></g></g><g fill="#120199" fill-opacity="1"><g transform="translate(240.059486, 77.067274)"><g><path d="M 31.890625 -0.390625 L 29.3125 -2.109375 L 19.828125 12.140625 C 19.222656 13.035156 18.640625 13.675781 18.078125 14.0625 C 17.515625 14.445312 16.882812 14.5625 16.1875 14.40625 C 15.488281 14.257812 14.640625 13.832031 13.640625 13.125 L 12.15625 11.953125 L 13.40625 8.96875 L 14.8125 10.140625 C 15.476562 10.671875 15.992188 10.894531 16.359375 10.8125 C 16.734375 10.738281 17.164062 10.332031 17.65625 9.59375 L 26.640625 -3.890625 L 11.390625 -14.046875 L 13.140625 -16.6875 L 33.640625 -3.03125 Z M 4.34375 1.3125 L 11.84375 -9.953125 L 21.9375 -3.234375 L 14.953125 7.234375 L 7.40625 2.203125 L 6.890625 3 Z M 12.671875 -5.703125 L 9.140625 -0.375 L 14.125 2.953125 L 17.65625 -2.375 Z M 12.671875 -5.703125 "/></g></g></g><g fill="#120199" fill-opacity="1"><g transform="translate(267.974056, 96.754242)"><g><path d="M -0.65625 4.421875 L 11.828125 -5.859375 L 18.75 2.546875 L 8.546875 10.953125 C 7.660156 11.679688 6.878906 12.003906 6.203125 11.921875 C 5.535156 11.847656 4.851562 11.316406 4.15625 10.328125 L 3.6875 9.59375 L 5.625 7.1875 L 6.125 8.109375 C 6.351562 8.492188 6.550781 8.625 6.71875 8.5 C 6.894531 8.375 7.144531 8.175781 7.46875 7.90625 L 8.484375 7.078125 L 5.359375 3.28125 L 1.21875 6.6875 Z M 12.3125 -6.578125 L 14.15625 -9.140625 C 14.40625 -8.929688 14.613281 -8.8125 14.78125 -8.78125 C 14.957031 -8.75 15.117188 -8.707031 15.265625 -8.65625 C 15.640625 -8.632812 16.203125 -8.628906 16.953125 -8.640625 C 17.710938 -8.660156 18.546875 -8.710938 19.453125 -8.796875 C 20.359375 -8.890625 21.179688 -9.039062 21.921875 -9.25 L 22.734375 -6.09375 C 22.054688 -5.988281 21.335938 -5.894531 20.578125 -5.8125 C 19.828125 -5.726562 19.132812 -5.671875 18.5 -5.640625 C 17.863281 -5.617188 17.367188 -5.632812 17.015625 -5.6875 C 17.390625 -5.289062 17.816406 -4.820312 18.296875 -4.28125 C 18.785156 -3.75 19.269531 -3.242188 19.75 -2.765625 C 19.882812 -3.210938 20.007812 -3.628906 20.125 -4.015625 C 20.25 -4.398438 20.359375 -4.738281 20.453125 -5.03125 L 23.140625 -4.21875 C 23.003906 -3.707031 22.820312 -3.0625 22.59375 -2.28125 C 22.375 -1.5 22.140625 -0.707031 21.890625 0.09375 C 21.648438 0.894531 21.429688 1.617188 21.234375 2.265625 L 26.84375 -2.34375 L 28.765625 -0.015625 L 25.8125 2.40625 C 26.488281 2.75 27.191406 3.09375 27.921875 3.4375 C 28.648438 3.78125 29.347656 4.085938 30.015625 4.359375 C 30.679688 4.640625 31.238281 4.847656 31.6875 4.984375 L 30.40625 7.890625 C 29.851562 7.679688 29.15625 7.375 28.3125 6.96875 C 27.476562 6.570312 26.617188 6.15625 25.734375 5.71875 C 24.859375 5.28125 24.054688 4.859375 23.328125 4.453125 L 22.484375 5.15625 C 22.085938 5.488281 21.882812 5.753906 21.875 5.953125 C 21.863281 6.160156 21.992188 6.429688 22.265625 6.765625 L 23.8125 8.640625 C 24.1875 9.097656 24.582031 9.296875 25 9.234375 C 25.425781 9.171875 26.054688 8.945312 26.890625 8.5625 L 28.03125 11.46875 C 26.707031 12.113281 25.585938 12.453125 24.671875 12.484375 C 23.765625 12.515625 22.953125 12.09375 22.234375 11.21875 L 19.09375 7.40625 C 18.539062 6.726562 18.304688 6.078125 18.390625 5.453125 C 18.472656 4.828125 18.929688 4.171875 19.765625 3.484375 L 21 2.46875 L 18.234375 1.625 L 18.765625 0.09375 C 18.367188 -0.363281 17.875 -0.90625 17.28125 -1.53125 C 16.6875 -2.15625 16.097656 -2.785156 15.515625 -3.421875 C 14.929688 -4.054688 14.421875 -4.59375 13.984375 -5.03125 C 13.679688 -5.332031 13.390625 -5.617188 13.109375 -5.890625 C 12.828125 -6.160156 12.5625 -6.390625 12.3125 -6.578125 Z M 17.359375 16.609375 L 18.484375 19.5625 C 17.046875 20.21875 15.847656 20.5625 14.890625 20.59375 C 13.929688 20.632812 13.066406 20.1875 12.296875 19.25 L 9.328125 15.640625 C 8.191406 14.234375 8.382812 12.898438 9.90625 11.640625 L 16.921875 5.859375 L 18.828125 8.171875 L 16.15625 10.375 C 17.207031 10.882812 18.300781 11.378906 19.4375 11.859375 C 20.582031 12.347656 21.566406 12.707031 22.390625 12.9375 L 21.4375 15.71875 C 20.757812 15.476562 19.976562 15.164062 19.09375 14.78125 C 18.207031 14.40625 17.304688 13.988281 16.390625 13.53125 C 15.484375 13.082031 14.644531 12.660156 13.875 12.265625 L 12.609375 13.296875 C 12.210938 13.628906 12.015625 13.925781 12.015625 14.1875 C 12.023438 14.457031 12.175781 14.769531 12.46875 15.125 L 13.828125 16.765625 C 14.222656 17.253906 14.664062 17.472656 15.15625 17.421875 C 15.644531 17.367188 16.378906 17.097656 17.359375 16.609375 Z M 8.53125 0.65625 L 7.359375 1.625 L 10.484375 5.421875 L 11.65625 4.453125 Z M 11.640625 -1.90625 L 10.515625 -0.984375 L 13.640625 2.8125 L 14.765625 1.890625 Z M 11.640625 -1.90625 "/></g></g></g><g clip-path="url(#b4e1f4c359)"><path fill="#ffffff" d="M 187.714844 295.84375 C 127.972656 295.84375 79.367188 247.238281 79.367188 187.5 C 79.367188 127.757812 127.972656 79.152344 187.714844 79.152344 C 247.457031 79.152344 296.058594 127.757812 296.058594 187.5 C 296.058594 247.238281 247.457031 295.84375 187.714844 295.84375 Z M 187.714844 81.074219 C 129.03125 81.074219 81.289062 128.816406 81.289062 187.5 C 81.289062 246.183594 129.03125 293.921875 187.714844 293.921875 C 246.398438 293.921875 294.136719 246.183594 294.136719 187.5 C 294.136719 128.816406 246.398438 81.074219 187.714844 81.074219 Z M 187.714844 81.074219 " fill-opacity="1" fill-rule="nonzero"/></g><path fill="#120199" d="M 292.921875 187.496094 C 292.921875 189.222656 292.878906 190.945312 292.792969 192.667969 C 292.710938 194.394531 292.582031 196.113281 292.414062 197.828125 C 292.246094 199.546875 292.035156 201.257812 291.78125 202.964844 C 291.527344 204.671875 291.234375 206.371094 290.894531 208.0625 C 290.558594 209.757812 290.183594 211.4375 289.761719 213.113281 C 289.34375 214.785156 288.882812 216.449219 288.382812 218.101562 C 287.882812 219.75 287.339844 221.390625 286.757812 223.011719 C 286.179688 224.636719 285.558594 226.246094 284.898438 227.839844 C 284.238281 229.433594 283.539062 231.011719 282.800781 232.570312 C 282.0625 234.132812 281.285156 235.671875 280.472656 237.195312 C 279.660156 238.714844 278.808594 240.214844 277.921875 241.695312 C 277.035156 243.175781 276.113281 244.632812 275.15625 246.066406 C 274.195312 247.503906 273.203125 248.914062 272.175781 250.296875 C 271.148438 251.683594 270.085938 253.042969 268.992188 254.378906 C 267.898438 255.710938 266.769531 257.015625 265.613281 258.296875 C 264.453125 259.574219 263.261719 260.824219 262.042969 262.042969 C 260.824219 263.261719 259.574219 264.453125 258.296875 265.613281 C 257.015625 266.769531 255.710938 267.898438 254.378906 268.992188 C 253.042969 270.085938 251.683594 271.148438 250.296875 272.175781 C 248.914062 273.203125 247.503906 274.195312 246.066406 275.15625 C 244.632812 276.113281 243.175781 277.035156 241.695312 277.921875 C 240.214844 278.808594 238.714844 279.660156 237.195312 280.472656 C 235.671875 281.285156 234.132812 282.0625 232.570312 282.800781 C 231.011719 283.539062 229.433594 284.238281 227.839844 284.898438 C 226.246094 285.558594 224.636719 286.179688 223.011719 286.757812 C 221.390625 287.339844 219.75 287.882812 218.101562 288.382812 C 216.449219 288.882812 214.785156 289.34375 213.113281 289.761719 C 211.4375 290.183594 209.757812 290.558594 208.0625 290.894531 C 206.371094 291.234375 204.671875 291.527344 202.964844 291.78125 C 201.257812 292.035156 199.546875 292.246094 197.828125 292.414062 C 196.113281 292.582031 194.394531 292.710938 192.667969 292.796875 C 190.945312 292.878906 189.222656 292.921875 187.496094 292.921875 C 185.769531 292.921875 184.046875 292.878906 182.324219 292.796875 C 180.601562 292.710938 178.878906 292.582031 177.164062 292.414062 C 175.445312 292.246094 173.734375 292.035156 172.027344 291.78125 C 170.320312 291.527344 168.621094 291.234375 166.929688 290.894531 C 165.238281 290.558594 163.554688 290.183594 161.878906 289.761719 C 160.207031 289.34375 158.542969 288.882812 156.894531 288.382812 C 155.242188 287.882812 153.605469 287.339844 151.980469 286.757812 C 150.355469 286.179688 148.746094 285.558594 147.152344 284.898438 C 145.558594 284.238281 143.980469 283.539062 142.421875 282.800781 C 140.863281 282.0625 139.320312 281.285156 137.800781 280.472656 C 136.277344 279.660156 134.777344 278.808594 133.296875 277.921875 C 131.816406 277.035156 130.359375 276.113281 128.925781 275.15625 C 127.492188 274.195312 126.082031 273.203125 124.695312 272.175781 C 123.308594 271.148438 121.949219 270.085938 120.617188 268.992188 C 119.28125 267.898438 117.976562 266.769531 116.695312 265.613281 C 115.417969 264.453125 114.167969 263.261719 112.949219 262.042969 C 111.730469 260.824219 110.539062 259.574219 109.382812 258.296875 C 108.222656 257.015625 107.097656 255.710938 106 254.378906 C 104.90625 253.042969 103.847656 251.683594 102.816406 250.296875 C 101.789062 248.914062 100.796875 247.503906 99.839844 246.066406 C 98.878906 244.632812 97.957031 243.175781 97.070312 241.695312 C 96.183594 240.214844 95.332031 238.714844 94.519531 237.195312 C 93.707031 235.671875 92.929688 234.132812 92.191406 232.570312 C 91.457031 231.011719 90.757812 229.433594 90.097656 227.839844 C 89.4375 226.246094 88.816406 224.636719 88.234375 223.011719 C 87.652344 221.390625 87.113281 219.75 86.609375 218.101562 C 86.109375 216.449219 85.648438 214.785156 85.230469 213.113281 C 84.8125 211.4375 84.433594 209.757812 84.097656 208.0625 C 83.761719 206.371094 83.464844 204.671875 83.210938 202.964844 C 82.960938 201.257812 82.746094 199.546875 82.578125 197.828125 C 82.410156 196.113281 82.28125 194.394531 82.199219 192.667969 C 82.113281 190.945312 82.070312 189.222656 82.070312 187.496094 C 82.070312 185.769531 82.113281 184.046875 82.199219 182.324219 C 82.28125 180.601562 82.410156 178.878906 82.578125 177.164062 C 82.746094 175.445312 82.960938 173.734375 83.210938 172.027344 C 83.464844 170.320312 83.761719 168.621094 84.097656 166.929688 C 84.433594 165.238281 84.8125 163.554688 85.230469 161.878906 C 85.648438 160.207031 86.109375 158.542969 86.609375 156.894531 C 87.113281 155.242188 87.652344 153.605469 88.234375 151.980469 C 88.816406 150.355469 89.4375 148.746094 90.097656 147.152344 C 90.757812 145.558594 91.457031 143.980469 92.191406 142.421875 C 92.929688 140.863281 93.707031 139.320312 94.519531 137.800781 C 95.332031 136.277344 96.183594 134.777344 97.070312 133.296875 C 97.957031 131.816406 98.878906 130.359375 99.839844 128.925781 C 100.796875 127.492188 101.789062 126.082031 102.816406 124.695312 C 103.847656 123.308594 104.90625 121.949219 106 120.617188 C 107.097656 119.28125 108.222656 117.976562 109.382812 116.695312 C 110.539062 115.417969 111.730469 114.167969 112.949219 112.949219 C 114.167969 111.730469 115.417969 110.539062 116.695312 109.382812 C 117.976562 108.222656 119.28125 107.097656 120.617188 106 C 121.949219 104.90625 123.308594 103.847656 124.695312 102.816406 C 126.082031 101.789062 127.492188 100.796875 128.925781 99.839844 C 130.359375 98.878906 131.816406 97.957031 133.296875 97.070312 C 134.777344 96.183594 136.277344 95.332031 137.800781 94.519531 C 139.320312 93.707031 140.863281 92.929688 142.421875 92.191406 C 143.980469 91.457031 145.558594 90.757812 147.152344 90.097656 C 148.746094 89.4375 150.355469 88.816406 151.980469 88.234375 C 153.605469 87.652344 155.242188 87.113281 156.894531 86.609375 C 158.542969 86.109375 160.207031 85.648438 161.878906 85.230469 C 163.554688 84.8125 165.238281 84.433594 166.929688 84.097656 C 168.621094 83.761719 170.320312 83.464844 172.027344 83.210938 C 173.734375 82.960938 175.445312 82.746094 177.164062 82.578125 C 178.878906 82.410156 180.601562 82.28125 182.324219 82.199219 C 184.046875 82.113281 185.769531 82.070312 187.496094 82.070312 C 189.222656 82.070312 190.945312 82.113281 192.667969 82.199219 C 194.394531 82.28125 196.113281 82.410156 197.828125 82.578125 C 199.546875 82.746094 201.257812 82.960938 202.964844 83.210938 C 204.671875 83.464844 206.371094 83.761719 208.0625 84.097656 C 209.757812 84.433594 211.4375 84.8125 213.113281 85.230469 C 214.785156 85.648438 216.449219 86.109375 218.101562 86.609375 C 219.75 87.113281 221.390625 87.652344 223.011719 88.234375 C 224.636719 88.816406 226.246094 89.4375 227.839844 90.097656 C 229.433594 90.757812 231.011719 91.457031 232.570312 92.191406 C 234.132812 92.929688 235.671875 93.707031 237.195312 94.519531 C 238.714844 95.332031 240.214844 96.183594 241.695312 97.070312 C 243.175781 97.957031 244.632812 98.878906 246.066406 99.839844 C 247.503906 100.796875 248.914062 101.789062 250.296875 102.816406 C 251.683594 103.847656 253.042969 104.90625 254.378906 106 C 255.710938 107.097656 257.015625 108.222656 258.296875 109.382812 C 259.574219 110.539062 260.824219 111.730469 262.042969 112.949219 C 263.261719 114.167969 264.453125 115.417969 265.613281 116.695312 C 266.769531 117.976562 267.898438 119.28125 268.992188 120.617188 C 270.085938 121.949219 271.148438 123.308594 272.175781 124.695312 C 273.203125 126.082031 274.195312 127.492188 275.15625 128.925781 C 276.113281 130.359375 277.035156 131.816406 277.921875 133.296875 C 278.808594 134.777344 279.660156 136.277344 280.472656 137.800781 C 281.285156 139.320312 282.0625 140.863281 282.800781 142.421875 C 283.539062 143.980469 284.238281 145.558594 284.898438 147.152344 C 285.558594 148.746094 286.179688 150.355469 286.757812 151.980469 C 287.339844 153.605469 287.882812 155.242188 288.382812 156.894531 C 288.882812 158.542969 289.34375 160.207031 289.761719 161.878906 C 290.183594 163.554688 290.558594 165.238281 290.894531 166.929688 C 291.234375 168.621094 291.527344 170.320312 291.78125 172.027344 C 292.035156 173.734375 292.246094 175.445312 292.414062 177.164062 C 292.582031 178.878906 292.710938 180.601562 292.792969 182.324219 C 292.878906 184.046875 292.921875 185.769531 292.921875 187.496094 Z M 292.921875 187.496094 " fill-opacity="1" fill-rule="nonzero"/><g clip-path="url(#7d1854a591)"><path fill="#120199" d="M 187.496094 294.03125 C 128.765625 294.03125 80.960938 246.226562 80.960938 187.496094 C 80.960938 128.765625 128.765625 80.960938 187.496094 80.960938 C 246.226562 80.960938 294.03125 128.765625 294.03125 187.496094 C 294.03125 246.226562 246.226562 294.03125 187.496094 294.03125 Z M 187.496094 83.265625 C 129.960938 83.265625 83.179688 130.046875 83.179688 187.582031 C 83.179688 245.117188 129.960938 291.898438 187.496094 291.898438 C 245.03125 291.898438 291.8125 245.03125 291.8125 187.496094 C 291.8125 129.960938 245.03125 83.265625 187.496094 83.265625 Z M 187.496094 83.265625 " fill-opacity="1" fill-rule="nonzero"/></g><g fill="#ffffff" fill-opacity="1"><g transform="translate(112.565535, 232.74665)"><g><path d="M 34.875 -105.0625 L 36.515625 -104.90625 C 39.828125 -104.90625 43.132812 -105.804688 46.4375 -107.609375 C 46.9375 -107.910156 47.4375 -108.257812 47.9375 -108.65625 C 48.445312 -109.0625 49.898438 -110.265625 52.296875 -112.265625 C 52.898438 -112.867188 53.65625 -113.171875 54.5625 -113.171875 C 55.957031 -113.171875 57.503906 -112.71875 59.203125 -111.8125 C 60.910156 -110.914062 61.765625 -110.117188 61.765625 -109.421875 C 61.765625 -108.816406 61.210938 -107.9375 60.109375 -106.78125 C 59.015625 -105.632812 57.613281 -104.410156 55.90625 -103.109375 C 54.707031 -102.804688 53.601562 -102.578125 52.59375 -102.421875 C 51.59375 -102.273438 50.84375 -102.203125 50.34375 -102.203125 C 46.632812 -101.898438 44.003906 -101.570312 42.453125 -101.21875 C 40.898438 -100.875 39.828125 -100.347656 39.234375 -99.640625 C 38.828125 -98.941406 38.472656 -98.316406 38.171875 -97.765625 C 37.867188 -97.210938 37.71875 -96.585938 37.71875 -95.890625 C 37.71875 -94.679688 38.09375 -93.703125 38.84375 -92.953125 C 39.601562 -92.203125 40.582031 -91.828125 41.78125 -91.828125 L 53.953125 -92.28125 C 54.753906 -92.28125 55.503906 -92.050781 56.203125 -91.59375 C 56.910156 -91.144531 57.265625 -90.625 57.265625 -90.03125 C 57.265625 -89.320312 56.738281 -88.59375 55.6875 -87.84375 C 54.632812 -87.09375 53.554688 -86.71875 52.453125 -86.71875 L 44.9375 -86.875 C 43.03125 -86.875 41.378906 -86.171875 39.984375 -84.765625 C 38.578125 -83.160156 37.875 -81.609375 37.875 -80.109375 C 37.875 -79.410156 38.25 -78.785156 39 -78.234375 C 39.75 -77.679688 40.675781 -77.40625 41.78125 -77.40625 L 43.734375 -77.546875 C 46.941406 -77.847656 49.796875 -78 52.296875 -78 C 54.109375 -78 55.015625 -77.445312 55.015625 -76.34375 C 55.015625 -75.039062 54.210938 -73.941406 52.609375 -73.046875 C 52.203125 -72.847656 51.820312 -72.695312 51.46875 -72.59375 C 51.125 -72.488281 50.445312 -72.363281 49.4375 -72.21875 C 48.4375 -72.070312 46.738281 -71.796875 44.34375 -71.390625 C 42.632812 -71.085938 41.253906 -70.5625 40.203125 -69.8125 C 39.148438 -69.0625 38.625 -68.132812 38.625 -67.03125 C 38.625 -66.832031 38.648438 -66.554688 38.703125 -66.203125 C 38.753906 -65.859375 38.828125 -65.429688 38.921875 -64.921875 C 40.722656 -64.117188 41.972656 -63.617188 42.671875 -63.421875 C 43.378906 -63.222656 44.382812 -63.023438 45.6875 -62.828125 C 47.394531 -62.722656 48.648438 -62.59375 49.453125 -62.4375 C 50.253906 -62.289062 51.753906 -62.019531 53.953125 -61.625 L 53.0625 -58.609375 C 51.550781 -58.109375 50.296875 -57.707031 49.296875 -57.40625 C 48.296875 -57.113281 47.394531 -56.914062 46.59375 -56.8125 C 46.394531 -56.707031 45.34375 -56.554688 43.4375 -56.359375 C 41.53125 -56.160156 38.820312 -55.8125 35.3125 -55.3125 C 31.207031 -54.601562 28.023438 -53.820312 25.765625 -52.96875 C 23.515625 -52.125 21.765625 -50.875 20.515625 -49.21875 C 19.265625 -47.570312 17.9375 -45.144531 16.53125 -41.9375 C 15.125 -38.832031 13.546875 -36.175781 11.796875 -33.96875 C 10.046875 -31.757812 8.617188 -30.65625 7.515625 -30.65625 C 6.910156 -30.65625 6.359375 -31.003906 5.859375 -31.703125 C 5.359375 -32.410156 5.109375 -33.21875 5.109375 -34.125 C 5.109375 -34.414062 5.15625 -34.8125 5.25 -35.3125 C 5.351562 -35.820312 5.628906 -36.976562 6.078125 -38.78125 C 6.535156 -40.582031 7.265625 -43.585938 8.265625 -47.796875 C 8.765625 -52.503906 9.015625 -54.859375 9.015625 -54.859375 C 9.816406 -57.359375 11.070312 -58.910156 12.78125 -59.515625 C 13.28125 -59.710938 13.703125 -59.863281 14.046875 -59.96875 C 14.398438 -60.070312 15.175781 -60.171875 16.375 -60.265625 L 23.140625 -60.875 C 23.640625 -60.96875 24.515625 -61.488281 25.765625 -62.4375 C 27.023438 -63.394531 27.804688 -64.175781 28.109375 -64.78125 C 28.609375 -66.175781 28.957031 -68.726562 29.15625 -72.4375 L 29.609375 -90.921875 C 29.609375 -92.234375 29.15625 -93.789062 28.25 -95.59375 C 26.550781 -98.789062 25.703125 -100.894531 25.703125 -101.90625 C 25.703125 -102.707031 26.175781 -103.53125 27.125 -104.375 C 28.082031 -105.226562 28.960938 -105.65625 29.765625 -105.65625 C 29.765625 -105.65625 30.238281 -105.601562 31.1875 -105.5 C 32.132812 -105.40625 33.363281 -105.257812 34.875 -105.0625 Z M 75.59375 -58.3125 L 71.234375 -58.171875 C 70.535156 -58.265625 69.910156 -58.613281 69.359375 -59.21875 C 68.804688 -59.820312 68.53125 -60.472656 68.53125 -61.171875 C 68.53125 -63.171875 70.1875 -64.171875 73.5 -64.171875 C 75.800781 -64.171875 77.628906 -63.84375 78.984375 -63.1875 C 80.335938 -62.539062 81.015625 -61.664062 81.015625 -60.5625 C 81.015625 -59.664062 80.710938 -59.066406 80.109375 -58.765625 C 79.910156 -58.566406 79.609375 -58.441406 79.203125 -58.390625 C 78.804688 -58.335938 77.601562 -58.3125 75.59375 -58.3125 Z M 111.96875 -101.453125 L 109.265625 -101.453125 C 108.566406 -101.453125 107.941406 -101.425781 107.390625 -101.375 C 106.835938 -101.320312 106.3125 -101.25 105.8125 -101.15625 C 103.90625 -100.75 102.375 -100.445312 101.21875 -100.25 C 100.070312 -100.050781 99.5 -99.953125 99.5 -99.953125 C 98.59375 -99.953125 96.988281 -100.601562 94.6875 -101.90625 C 95.488281 -103.300781 96.1875 -104.375 96.78125 -105.125 C 97.382812 -105.882812 98.085938 -106.515625 98.890625 -107.015625 L 100.390625 -107.765625 C 104.304688 -107.265625 107.085938 -106.910156 108.734375 -106.703125 C 110.390625 -106.503906 111.414062 -106.378906 111.8125 -106.328125 C 112.21875 -106.285156 112.472656 -106.265625 112.578125 -106.265625 C 113.773438 -106.265625 115.226562 -106.515625 116.9375 -107.015625 C 120.4375 -108.117188 122.738281 -108.671875 123.84375 -108.671875 C 124.84375 -108.671875 125.789062 -108.21875 126.6875 -107.3125 C 127.59375 -106.40625 128 -105.453125 127.90625 -104.453125 L 127.15625 -86.875 L 128.359375 -65.828125 C 128.359375 -65.734375 128.359375 -65.484375 128.359375 -65.078125 C 128.359375 -64.679688 128.304688 -64.226562 128.203125 -63.71875 C 129.304688 -63.125 130.332031 -62.625 131.28125 -62.21875 C 132.238281 -61.820312 132.914062 -61.625 133.3125 -61.625 C 135.613281 -61.125 137.265625 -60.75 138.265625 -60.5 C 139.273438 -60.25 139.925781 -60.019531 140.21875 -59.8125 C 140.519531 -59.613281 140.820312 -59.316406 141.125 -58.921875 C 142.832031 -56.015625 143.6875 -52.457031 143.6875 -48.25 C 143.6875 -45.539062 143.410156 -43.257812 142.859375 -41.40625 C 142.304688 -39.550781 141.175781 -37.320312 139.46875 -34.71875 C 137.875 -34.914062 136.820312 -35.210938 136.3125 -35.609375 C 135.8125 -36.015625 135.460938 -36.96875 135.265625 -38.46875 C 134.066406 -47.1875 131.210938 -52.5 126.703125 -54.40625 C 124.597656 -55.40625 122.394531 -55.957031 120.09375 -56.0625 L 101.296875 -56.515625 C 100.992188 -56.515625 100.164062 -56.863281 98.8125 -57.5625 C 97.46875 -58.257812 96.644531 -58.757812 96.34375 -59.0625 C 95.84375 -59.5625 95.59375 -60.015625 95.59375 -60.421875 C 95.59375 -61.921875 96.941406 -62.671875 99.640625 -62.671875 C 100.140625 -62.671875 100.765625 -62.671875 101.515625 -62.671875 C 102.273438 -62.671875 103.15625 -62.625 104.15625 -62.53125 L 107.46875 -62.53125 C 110.664062 -62.53125 113.316406 -63.03125 115.421875 -64.03125 C 117.523438 -65.03125 118.578125 -66.332031 118.578125 -67.9375 C 118.578125 -69.4375 117.425781 -70.890625 115.125 -72.296875 C 114.726562 -72.597656 114.003906 -73.019531 112.953125 -73.5625 C 111.898438 -74.113281 111.320312 -74.390625 111.21875 -74.390625 L 95.734375 -73.34375 C 95.640625 -73.34375 95.441406 -73.46875 95.140625 -73.71875 C 94.835938 -73.96875 94.585938 -74.144531 94.390625 -74.25 C 93.890625 -74.550781 93.640625 -74.953125 93.640625 -75.453125 C 93.640625 -76.253906 94.1875 -77.054688 95.28125 -77.859375 C 95.582031 -78.160156 96.132812 -78.535156 96.9375 -78.984375 C 97.738281 -79.429688 98.191406 -79.65625 98.296875 -79.65625 L 114.078125 -79.359375 C 114.273438 -79.359375 114.671875 -79.53125 115.265625 -79.875 C 115.867188 -80.226562 116.273438 -80.503906 116.484375 -80.703125 C 117.179688 -81.410156 117.53125 -82.210938 117.53125 -83.109375 C 117.53125 -84.710938 117.03125 -86.085938 116.03125 -87.234375 C 115.03125 -88.390625 113.828125 -88.96875 112.421875 -88.96875 C 111.015625 -88.96875 109.410156 -88.671875 107.609375 -88.078125 C 104.003906 -86.972656 101.300781 -86.421875 99.5 -86.421875 C 98.789062 -86.421875 98.132812 -86.671875 97.53125 -87.171875 C 96.9375 -87.671875 96.640625 -88.222656 96.640625 -88.828125 C 96.640625 -89.929688 97.238281 -91.03125 98.4375 -92.125 C 99.644531 -93.226562 100.75 -93.78125 101.75 -93.78125 C 102.75 -93.78125 105.101562 -93.484375 108.8125 -92.890625 C 109.21875 -92.785156 109.617188 -92.734375 110.015625 -92.734375 C 110.421875 -92.734375 110.820312 -92.734375 111.21875 -92.734375 C 113.320312 -92.734375 115.148438 -93.179688 116.703125 -94.078125 C 118.253906 -94.984375 119.03125 -96.085938 119.03125 -97.390625 C 119.03125 -99.796875 116.675781 -101.148438 111.96875 -101.453125 Z M 23.453125 -30.359375 L 37.125 -29.90625 C 40.125 -30.207031 42.25 -30.429688 43.5 -30.578125 C 44.757812 -30.734375 45.5625 -30.8125 45.90625 -30.8125 C 46.257812 -30.8125 46.585938 -30.8125 46.890625 -30.8125 C 49.296875 -30.8125 50.5 -29.957031 50.5 -28.25 C 50.5 -27.75 50.398438 -27.5 50.203125 -27.5 C 48.492188 -26.800781 47.085938 -26.25 45.984375 -25.84375 C 44.890625 -25.445312 44.140625 -25.195312 43.734375 -25.09375 L 29.453125 -22.09375 C 25.847656 -21.1875 23.242188 -20.53125 21.640625 -20.125 C 20.035156 -19.726562 18.984375 -19.476562 18.484375 -19.375 C 17.984375 -19.28125 17.429688 -19.234375 16.828125 -19.234375 C 14.929688 -19.234375 13.984375 -19.988281 13.984375 -21.5 C 13.984375 -22.59375 14.632812 -23.742188 15.9375 -24.953125 C 19.84375 -28.554688 22.347656 -30.359375 23.453125 -30.359375 Z M 73.796875 -88.375 L 79.0625 -84.46875 C 79.5625 -84.164062 80.109375 -84.015625 80.703125 -84.015625 C 81.804688 -84.015625 82.929688 -84.664062 84.078125 -85.96875 C 85.234375 -87.269531 86.664062 -89.375 88.375 -92.28125 C 89.28125 -92.582031 90.03125 -92.734375 90.625 -92.734375 C 91.425781 -92.734375 92.050781 -92.253906 92.5 -91.296875 C 92.957031 -90.347656 93.1875 -89.070312 93.1875 -87.46875 C 93.1875 -85.769531 92.535156 -84.316406 91.234375 -83.109375 C 89.523438 -81.503906 88.117188 -80.175781 87.015625 -79.125 C 85.921875 -78.070312 85.375 -77.5 85.375 -77.40625 L 85.515625 -71.09375 C 85.515625 -70.1875 84.765625 -68.679688 83.265625 -66.578125 L 82.0625 -66.578125 C 80.957031 -68.679688 79.953125 -70.160156 79.046875 -71.015625 C 78.148438 -71.867188 77.101562 -72.296875 75.90625 -72.296875 C 75.601562 -72.296875 75.222656 -72.21875 74.765625 -72.0625 C 74.316406 -71.914062 73.441406 -71.488281 72.140625 -70.78125 C 70.835938 -70.082031 68.582031 -68.882812 65.375 -67.1875 C 64.976562 -66.976562 64.628906 -66.875 64.328125 -66.875 C 62.117188 -66.875 60.160156 -67.453125 58.453125 -68.609375 C 56.753906 -69.765625 55.90625 -71.09375 55.90625 -72.59375 C 55.90625 -74.300781 56.859375 -75.15625 58.765625 -75.15625 C 59.066406 -75.15625 59.515625 -75.128906 60.109375 -75.078125 C 60.710938 -75.023438 62.671875 -74.847656 65.984375 -74.546875 L 66.578125 -74.546875 C 68.285156 -74.546875 69.710938 -75.046875 70.859375 -76.046875 C 72.015625 -77.046875 72.59375 -78.25 72.59375 -79.65625 C 72.59375 -80.851562 72.039062 -81.804688 70.9375 -82.515625 C 68.832031 -84.015625 67.78125 -85.21875 67.78125 -86.125 C 67.78125 -86.925781 68.15625 -87.550781 68.90625 -88 C 69.65625 -88.445312 70.535156 -88.671875 71.546875 -88.671875 C 72.847656 -88.671875 73.597656 -88.570312 73.796875 -88.375 Z M 73.5 -26 L 73.1875 -27.046875 C 72.988281 -27.347656 70.785156 -27.601562 66.578125 -27.8125 C 65.472656 -27.90625 64.617188 -28.148438 64.015625 -28.546875 C 63.421875 -28.953125 62.722656 -29.65625 61.921875 -30.65625 C 62.523438 -31.457031 63.203125 -32.035156 63.953125 -32.390625 C 64.703125 -32.742188 66.03125 -33.066406 67.9375 -33.359375 L 67.9375 -34.125 C 65.226562 -35.71875 63.523438 -36.515625 62.828125 -36.515625 L 56.21875 -36.828125 C 56.113281 -36.722656 55.507812 -36.796875 54.40625 -37.046875 C 53.300781 -37.296875 52.148438 -37.570312 50.953125 -37.875 L 49.90625 -40.734375 C 48.59375 -40.429688 47.4375 -40.28125 46.4375 -40.28125 C 45.632812 -40.28125 44.90625 -40.53125 44.25 -41.03125 C 43.601562 -41.53125 43.28125 -42.082031 43.28125 -42.6875 C 43.28125 -44.082031 44.28125 -45.632812 46.28125 -47.34375 C 48.289062 -49.050781 50.625 -50.554688 53.28125 -51.859375 C 55.9375 -53.160156 58.316406 -53.8125 60.421875 -53.8125 C 60.515625 -53.8125 61.488281 -53.707031 63.34375 -53.5 C 65.195312 -53.300781 67.578125 -53.050781 70.484375 -52.75 C 70.984375 -52.65625 71.507812 -52.609375 72.0625 -52.609375 C 72.613281 -52.609375 73.140625 -52.609375 73.640625 -52.609375 C 74.140625 -52.609375 74.691406 -52.609375 75.296875 -52.609375 C 75.898438 -52.609375 76.550781 -52.65625 77.25 -52.75 C 80.15625 -52.957031 82.507812 -53.160156 84.3125 -53.359375 C 86.113281 -53.554688 87.21875 -53.65625 87.625 -53.65625 C 89.226562 -53.65625 91.28125 -53.40625 93.78125 -52.90625 C 96.289062 -52.40625 98.296875 -51.851562 99.796875 -51.25 C 101.703125 -50.445312 102.65625 -49.144531 102.65625 -47.34375 C 102.65625 -46.039062 102.050781 -44.835938 100.84375 -43.734375 C 100.75 -43.640625 100.550781 -43.515625 100.25 -43.359375 C 99.945312 -43.210938 99.21875 -42.835938 98.0625 -42.234375 C 96.914062 -41.628906 94.9375 -40.578125 92.125 -39.078125 C 91.425781 -38.671875 90.828125 -38.117188 90.328125 -37.421875 C 89.828125 -36.722656 89.578125 -36.019531 89.578125 -35.3125 C 89.578125 -33.914062 90.929688 -32.96875 93.640625 -32.46875 C 93.835938 -32.46875 94.9375 -32.414062 96.9375 -32.3125 C 98.945312 -32.207031 101.425781 -32.101562 104.375 -32 C 107.332031 -31.90625 110.363281 -31.804688 113.46875 -31.703125 C 116.582031 -31.609375 119.316406 -31.535156 121.671875 -31.484375 C 124.023438 -31.429688 125.550781 -31.40625 126.25 -31.40625 L 132.109375 -31.40625 C 134.210938 -31.40625 135.914062 -31.101562 137.21875 -30.5 C 138.519531 -29.90625 139.171875 -29.054688 139.171875 -27.953125 C 139.171875 -26.546875 138.070312 -25.09375 135.875 -23.59375 C 134.46875 -22.695312 132.710938 -21.847656 130.609375 -21.046875 C 128.503906 -20.242188 127 -19.84375 126.09375 -19.84375 L 122.9375 -20.296875 L 119.484375 -20.734375 L 112.578125 -23.296875 C 110.472656 -24.097656 108.914062 -24.648438 107.90625 -24.953125 C 106.90625 -25.253906 106.128906 -25.425781 105.578125 -25.46875 C 105.023438 -25.519531 104.25 -25.546875 103.25 -25.546875 C 98.238281 -25.546875 94.753906 -25.492188 92.796875 -25.390625 C 90.847656 -25.296875 89.472656 -25.097656 88.671875 -24.796875 C 88.171875 -24.597656 87.695312 -24.171875 87.25 -23.515625 C 86.800781 -22.867188 86.578125 -22.195312 86.578125 -21.5 L 87.015625 -11.421875 C 87.015625 -10.816406 86.988281 -10.140625 86.9375 -9.390625 C 86.894531 -8.640625 86.773438 -7.613281 86.578125 -6.3125 C 85.867188 -4.3125 85.265625 -2.757812 84.765625 -1.65625 C 84.265625 -0.550781 83.6875 0.425781 83.03125 1.28125 C 82.382812 2.132812 81.359375 3.257812 79.953125 4.65625 C 78.453125 4.851562 77.097656 5.078125 75.890625 5.328125 C 74.691406 5.585938 73.84375 5.816406 73.34375 6.015625 C 70.632812 7.015625 69.234375 7.460938 69.140625 7.359375 L 61.625 6.015625 L 53.65625 6.90625 C 52.75 6.90625 51.441406 6.453125 49.734375 5.546875 C 48.035156 4.648438 46.3125 3.578125 44.5625 2.328125 C 42.8125 1.078125 41.332031 -0.144531 40.125 -1.34375 C 38.925781 -2.550781 38.328125 -3.503906 38.328125 -4.203125 C 38.328125 -4.804688 38.851562 -5.535156 39.90625 -6.390625 C 40.957031 -7.242188 41.785156 -7.566406 42.390625 -7.359375 L 58.609375 -4.203125 L 63.421875 -4.0625 L 71.09375 -3.15625 C 73 -3.15625 74.398438 -3.753906 75.296875 -4.953125 C 75.597656 -5.460938 75.820312 -6.066406 75.96875 -6.765625 C 76.125 -7.460938 76.222656 -8.785156 76.265625 -10.734375 C 76.316406 -12.691406 76.34375 -15.726562 76.34375 -19.84375 C 76.34375 -21.238281 76.21875 -22.1875 75.96875 -22.6875 C 75.71875 -23.195312 74.894531 -24.300781 73.5 -26 Z M 62.21875 -43.890625 C 66.332031 -40.785156 69.460938 -38.65625 71.609375 -37.5 C 73.765625 -36.34375 75.644531 -35.765625 77.25 -35.765625 C 78.65625 -35.765625 80.160156 -36.289062 81.765625 -37.34375 C 83.367188 -38.394531 84.742188 -39.644531 85.890625 -41.09375 C 87.046875 -42.550781 87.625 -43.882812 87.625 -45.09375 C 87.625 -46.195312 86.796875 -47.097656 85.140625 -47.796875 C 83.484375 -48.492188 81.503906 -48.84375 79.203125 -48.84375 C 78.398438 -48.84375 77.171875 -48.765625 75.515625 -48.609375 C 73.867188 -48.460938 72.191406 -48.3125 70.484375 -48.15625 C 68.785156 -48.007812 67.382812 -47.835938 66.28125 -47.640625 C 64.976562 -47.441406 63.925781 -47.066406 63.125 -46.515625 C 62.320312 -45.960938 61.921875 -45.285156 61.921875 -44.484375 C 61.921875 -44.285156 62.019531 -44.085938 62.21875 -43.890625 Z M 66.125 -107.90625 L 66.4375 -110.46875 C 67.632812 -111.070312 68.484375 -111.375 68.984375 -111.375 C 69.484375 -111.375 69.910156 -111.320312 70.265625 -111.21875 C 70.617188 -111.113281 71.242188 -110.8125 72.140625 -110.3125 C 73.046875 -109.8125 74.5 -108.960938 76.5 -107.765625 C 77.101562 -107.460938 77.707031 -107.3125 78.3125 -107.3125 C 80.007812 -107.3125 81.910156 -109.316406 84.015625 -113.328125 C 87.722656 -113.421875 89.578125 -111.816406 89.578125 -108.515625 C 89.578125 -107.515625 89.300781 -106.613281 88.75 -105.8125 C 88.195312 -105.007812 86.867188 -103.554688 84.765625 -101.453125 C 84.066406 -100.648438 83.71875 -99.945312 83.71875 -99.34375 C 83.71875 -98.945312 83.738281 -98.597656 83.78125 -98.296875 C 83.832031 -97.992188 84.0625 -97.039062 84.46875 -95.4375 L 84.609375 -94.078125 C 84.609375 -92.679688 83.859375 -91.484375 82.359375 -90.484375 C 81.054688 -90.679688 80.15625 -91.03125 79.65625 -91.53125 C 79.15625 -92.03125 78.503906 -93.132812 77.703125 -94.84375 C 77.398438 -94.9375 77 -94.984375 76.5 -94.984375 C 75.394531 -94.984375 74.039062 -94.132812 72.4375 -92.4375 C 69.9375 -89.832031 67.734375 -88.53125 65.828125 -88.53125 C 63.628906 -88.53125 61.523438 -89.179688 59.515625 -90.484375 C 57.515625 -91.785156 56.515625 -93.132812 56.515625 -94.53125 C 56.515625 -96.238281 58.566406 -96.941406 62.671875 -96.640625 C 65.378906 -96.441406 67.660156 -96.742188 69.515625 -97.546875 C 71.367188 -98.347656 72.296875 -99.445312 72.296875 -100.84375 C 72.296875 -103.050781 70.238281 -105.40625 66.125 -107.90625 Z M 66.125 -107.90625 "/></g></g></g><g fill="#ffffff" fill-opacity="1"><g transform="translate(149.984303, 266.139615)"><g><path d="M 4.84375 -5.328125 L 7.25 -5.328125 L 7.25 -2.890625 L 4.84375 -2.890625 Z M 4.84375 -5.328125 "/></g></g></g><g fill="#ffffff" fill-opacity="1"><g transform="translate(165.800482, 266.139615)"><g><path d="M 1.1875 -7 L 3.5625 -8.578125 L 5.015625 -8.578125 L 5.015625 0.515625 L 3.421875 0.515625 L 3.421875 -6.796875 L 1.71875 -5.640625 Z M 1.1875 -7 "/></g></g></g><g fill="#ffffff" fill-opacity="1"><g transform="translate(177.683917, 266.139615)"><g><path d="M 2.375 -5.671875 C 2.375 -5.160156 2.519531 -4.738281 2.8125 -4.40625 C 3.113281 -4.082031 3.519531 -3.921875 4.03125 -3.921875 C 4.351562 -3.921875 4.644531 -3.992188 4.90625 -4.140625 C 5.164062 -4.285156 5.367188 -4.488281 5.515625 -4.75 C 5.660156 -5.019531 5.722656 -5.320312 5.703125 -5.65625 C 5.691406 -6.15625 5.539062 -6.570312 5.25 -6.90625 C 4.96875 -7.238281 4.5625 -7.40625 4.03125 -7.40625 C 3.507812 -7.40625 3.101562 -7.242188 2.8125 -6.921875 C 2.519531 -6.597656 2.375 -6.179688 2.375 -5.671875 Z M 0.75 -5.5625 C 0.75 -6.570312 1.035156 -7.347656 1.609375 -7.890625 C 2.179688 -8.429688 3.007812 -8.703125 4.09375 -8.703125 C 4.832031 -8.703125 5.445312 -8.53125 5.9375 -8.1875 C 6.425781 -7.84375 6.789062 -7.359375 7.03125 -6.734375 C 7.28125 -6.117188 7.40625 -5.382812 7.40625 -4.53125 C 7.40625 -3.46875 7.269531 -2.546875 7 -1.765625 C 6.738281 -0.992188 6.34375 -0.398438 5.8125 0.015625 C 5.289062 0.429688 4.628906 0.640625 3.828125 0.640625 C 3.078125 0.640625 2.46875 0.460938 2 0.109375 C 1.539062 -0.234375 1.171875 -0.691406 0.890625 -1.265625 L 2.5 -1.515625 C 2.644531 -1.210938 2.835938 -0.988281 3.078125 -0.84375 C 3.328125 -0.707031 3.59375 -0.640625 3.875 -0.640625 C 4.34375 -0.640625 4.710938 -0.773438 4.984375 -1.046875 C 5.265625 -1.316406 5.472656 -1.679688 5.609375 -2.140625 C 5.742188 -2.597656 5.820312 -3.109375 5.84375 -3.671875 L 5.8125 -3.671875 C 5.65625 -3.398438 5.453125 -3.1875 5.203125 -3.03125 C 4.953125 -2.882812 4.6875 -2.78125 4.40625 -2.71875 C 4.132812 -2.65625 3.878906 -2.625 3.640625 -2.625 C 3.054688 -2.625 2.546875 -2.75 2.109375 -3 C 1.679688 -3.257812 1.347656 -3.613281 1.109375 -4.0625 C 0.867188 -4.507812 0.75 -5.007812 0.75 -5.5625 Z M 0.75 -5.5625 "/></g></g></g><g fill="#ffffff" fill-opacity="1"><g transform="translate(189.567353, 266.139615)"><g><path d="M 2.375 -5.671875 C 2.375 -5.160156 2.519531 -4.738281 2.8125 -4.40625 C 3.113281 -4.082031 3.519531 -3.921875 4.03125 -3.921875 C 4.351562 -3.921875 4.644531 -3.992188 4.90625 -4.140625 C 5.164062 -4.285156 5.367188 -4.488281 5.515625 -4.75 C 5.660156 -5.019531 5.722656 -5.320312 5.703125 -5.65625 C 5.691406 -6.15625 5.539062 -6.570312 5.25 -6.90625 C 4.96875 -7.238281 4.5625 -7.40625 4.03125 -7.40625 C 3.507812 -7.40625 3.101562 -7.242188 2.8125 -6.921875 C 2.519531 -6.597656 2.375 -6.179688 2.375 -5.671875 Z M 0.75 -5.5625 C 0.75 -6.570312 1.035156 -7.347656 1.609375 -7.890625 C 2.179688 -8.429688 3.007812 -8.703125 4.09375 -8.703125 C 4.832031 -8.703125 5.445312 -8.53125 5.9375 -8.1875 C 6.425781 -7.84375 6.789062 -7.359375 7.03125 -6.734375 C 7.28125 -6.117188 7.40625 -5.382812 7.40625 -4.53125 C 7.40625 -3.46875 7.269531 -2.546875 7 -1.765625 C 6.738281 -0.992188 6.34375 -0.398438 5.8125 0.015625 C 5.289062 0.429688 4.628906 0.640625 3.828125 0.640625 C 3.078125 0.640625 2.46875 0.460938 2 0.109375 C 1.539062 -0.234375 1.171875 -0.691406 0.890625 -1.265625 L 2.5 -1.515625 C 2.644531 -1.210938 2.835938 -0.988281 3.078125 -0.84375 C 3.328125 -0.707031 3.59375 -0.640625 3.875 -0.640625 C 4.34375 -0.640625 4.710938 -0.773438 4.984375 -1.046875 C 5.265625 -1.316406 5.472656 -1.679688 5.609375 -2.140625 C 5.742188 -2.597656 5.820312 -3.109375 5.84375 -3.671875 L 5.8125 -3.671875 C 5.65625 -3.398438 5.453125 -3.1875 5.203125 -3.03125 C 4.953125 -2.882812 4.6875 -2.78125 4.40625 -2.71875 C 4.132812 -2.65625 3.878906 -2.625 3.640625 -2.625 C 3.054688 -2.625 2.546875 -2.75 2.109375 -3 C 1.679688 -3.257812 1.347656 -3.613281 1.109375 -4.0625 C 0.867188 -4.507812 0.75 -5.007812 0.75 -5.5625 Z M 0.75 -5.5625 "/></g></g></g><g fill="#ffffff" fill-opacity="1"><g transform="translate(201.450787, 266.139615)"><g><path d="M 0.453125 -2.4375 L 4.296875 -8.578125 L 6.5625 -8.578125 L 6.5625 -2.75 L 7.671875 -2.75 L 7.671875 -1.359375 L 6.5625 -1.359375 L 6.5625 0.515625 L 4.96875 0.515625 L 4.96875 -1.359375 L 0.453125 -1.359375 Z M 2.328125 -2.75 L 4.96875 -2.75 L 4.96875 -6.96875 L 4.953125 -6.96875 Z M 2.328125 -2.75 "/></g></g></g><g fill="#ffffff" fill-opacity="1"><g transform="translate(213.33422, 266.139615)"><g><path d="M 4.84375 -5.328125 L 7.25 -5.328125 L 7.25 -2.890625 L 4.84375 -2.890625 Z M 4.84375 -5.328125 "/></g></g></g></svg>